<?xml version="1.0" standalone="no"?>
<!DOCTYPE svg PUBLIC "-//W3C//DTD SVG 20010904//EN"
 "http://www.w3.org/TR/2001/REC-SVG-20010904/DTD/svg10.dtd">
<svg version="1.0" xmlns="http://www.w3.org/2000/svg"
 width="591.000000pt" height="591.000000pt" viewBox="0 0 591.000000 591.000000"
 preserveAspectRatio="xMidYMid meet">

<g transform="translate(0.000000,591.000000) scale(0.100000,-0.100000)"
fill="#000000" stroke="none">
<path d="M515 4017 c-26 -45 -58 -101 -71 -123 l-24 -41 330 -187 330 -186
1437 0 c790 0 1441 4 1447 9 6 4 160 72 341 150 182 78 333 145 336 149 5 5
-93 247 -105 259 -2 2 -148 -60 -326 -137 l-323 -140 -1371 0 -1370 0 -286
161 c-157 89 -288 163 -291 165 -4 2 -28 -33 -54 -79z"/>
<path d="M1087 3202 c-17 -7 -175 -69 -351 -139 -177 -69 -322 -127 -323 -128
-2 -1 96 -254 102 -263 1 -1 144 54 319 123 l317 125 1367 0 1366 0 250 -141
c138 -78 269 -153 292 -166 l41 -23 48 82 c26 46 58 102 71 124 l24 41 -262
148 c-145 82 -292 166 -327 187 l-63 38 -1420 3 c-1135 2 -1427 -1 -1451 -11z"/>
</g>
</svg>
